<?xml version="1.0" encoding="UTF-8"?>
<svg viewBox="0 0 256 256" xmlns="http://www.w3.org/2000/svg" xmlns:xlink="http://www.w3.org/1999/xlink">
 <defs>
  <clipPath id="v">
   <path d="m0.5 0.5002v252.5h247v-252.5h-247zm91.5 28.5c37.26 0 67.5 30.24 67.5 67.5s-30.24 67.5-67.5 67.5-67.5-30.24-67.5-67.5 30.24-67.5 67.5-67.5z" fill="#735047" fill-opacity=".588" stroke-linecap="round" stroke-linejoin="round" stroke-opacity=".72" stroke-width="2.5"/>
  </clipPath>
  <filter id="w" color-interpolation-filters="sRGB">
   <feGaussianBlur stdDeviation="5.728125"/>
  </filter>
  <linearGradient id="r">
   <stop stop-color="#666" offset="0"/>
   <stop stop-color="#fff" offset="1"/>
  </linearGradient>
  <linearGradient id="a">
   <stop stop-color="#9c9c9c" offset="0"/>
   <stop stop-color="#fff" offset="1"/>
  </linearGradient>
  <linearGradient id="z" x1=".51155" x2="1.1984" y1="1.2298" y2="-.56213" xlink:href="#a"/>
  <linearGradient id="x" x1=".50012" x2=".50012" y1="1.8073" y2="-.80721" xlink:href="#a"/>
  <linearGradient id="y" x1=".57361" x2=".57361" y1="1.0361" y2="-.37274">
   <stop stop-color="#999" offset="0"/>
   <stop stop-color="#e6e6e6" offset="1"/>
  </linearGradient>
  <linearGradient id="aa" x1="1" x2="3e-5" y1="1.2986" y2="-1.4e-5" xlink:href="#a"/>
  <linearGradient id="ad" x1="33.469" x2="141.56" y1="854.68" y2="854.68" gradientTransform="translate(0 3.4266e-6)" gradientUnits="userSpaceOnUse">
   <stop stop-color="#fff" offset="0"/>
   <stop stop-color="#4d4d4d" offset="1"/>
  </linearGradient>
  <linearGradient id="ab" x1=".11535" x2=".11377" y1=".99476" y2="-.00026">
   <stop stop-color="#d88000" offset="0"/>
   <stop stop-color="#ffe1b5" offset=".31135"/>
   <stop stop-color="#ec9c1a" offset=".70969"/>
   <stop stop-color="#885600" offset="1"/>
  </linearGradient>
  <linearGradient id="ac" x1="87.516" x2="87.516" y1="829.03" y2="887.91" gradientUnits="userSpaceOnUse">
   <stop stop-color="#fff" offset="0"/>
   <stop stop-color="#4d4d4d" offset="1"/>
  </linearGradient>
  <mask id="u" maskUnits="userSpaceOnUse">
   <path d="m84.094 829.08c-25.153 1.243-47.92 22.016-50.625 47.25 12.099 10.751 30.812 16.083 45.25 6.844 8.656-5.619 15.868-14.308 26.687-15.719 12.909-2.427 25.778 3.026 36.156 10.312-2.275-26.836-27.238-49.437-54.187-48.718-1.0937 0.010986-2.1883-0.028015-3.2812 0.031006z" fill="url(#ag)" fill-rule="evenodd" opacity=".788"/>
  </mask>
  <mask id="t" maskUnits="userSpaceOnUse">
   <path d="m84.094 829.08c-25.153 1.243-47.92 22.016-50.625 47.25 12.099 10.751 30.812 16.083 45.25 6.844 8.656-5.619 15.868-14.308 26.687-15.719 12.909-2.427 25.778 3.026 36.156 10.312-2.275-26.836-27.238-49.437-54.187-48.718-1.0937 0.010986-2.1883-0.028015-3.2812 0.031006z" fill="url(#ad)" fill-rule="evenodd"/>
  </mask>
  <mask id="s" maskUnits="userSpaceOnUse">
   <path d="m84.094 829.08c-25.153 1.243-47.92 22.016-50.625 47.25 12.099 10.751 30.812 16.083 45.25 6.844 8.656-5.619 15.868-14.308 26.687-15.719 12.909-2.427 25.778 3.026 36.156 10.312-2.275-26.836-27.238-49.437-54.187-48.718-1.0937 0.010986-2.1883-0.028015-3.2812 0.031006z" fill="url(#ac)" fill-rule="evenodd"/>
  </mask>
  <radialGradient id="ag" cx="87.516" cy="851.13" r="54.047" gradientTransform="matrix(1.5624 0 0 .84387 -49.216 156.4)" gradientUnits="userSpaceOnUse" xlink:href="#r"/>
  <radialGradient id="ae" cx="87.456" cy="939.89" r="56.455" gradientTransform="matrix(1.8705 0 0 1.8685 -74.333 -1614.9)" gradientUnits="userSpaceOnUse">
   <stop stop-color="#d5f6ff" offset="0"/>
   <stop stop-color="#0098be" offset="1"/>
  </radialGradient>
  <radialGradient id="af" cx="165.08" cy="171.85" r="11.283" gradientTransform="matrix(2.9944 .80233 -.99597 3.717 -136.29 207.45)" gradientUnits="userSpaceOnUse" xlink:href="#r"/>
 </defs>
 <g clip-path="url(#v)">
  <path d="m254 238.73a1.9323 6.441 0 1 1 -3.8646 0 1.9323 6.441 0 1 1 3.8646 0z" fill="#735047" fill-opacity=".588" stroke-linecap="round" stroke-linejoin="round" stroke-opacity=".72" stroke-width="2.5"/>
 </g>
 <g transform="rotate(21.537 118.44 122.39) matrix(.83632 0 0 .83632 9.0555 25.214)">
  <path d="m89.196 1.5562c-40.258 0-72.875 32.617-72.875 72.875s32.617 72.875 72.875 72.875c13.272 0 25.717-3.5553 36.438-9.75 3.3047 3.0396 7.6873 4.9375 12.531 4.9375 1.9922 0 3.9191-0.3244 5.7188-0.90625l11.781 11.781c0.092102 2.5836 1.0408 4.9603 2.5938 6.8125l-2.3438 2.3438 67.844 67.844 2.6562-2.6562c2.0043 1.9185 4.7252 3.125 7.7188 3.125 6.164 0 11.156-5.0234 11.156-11.188 0-3.0018-1.1971-5.7128-3.125-7.7188l2.5-2.5-67.812-67.812-2.8438 2.8125c-1.9117-1.6085-4.3813-2.5884-7.0625-2.625l-11.375-11.375c0.75812-2.0246 1.1562-4.2123 1.1562-6.5 0-4.767-1.8582-9.0574-4.8125-12.344 6.466-10.881 10.188-23.58 10.188-37.156 0-40.258-32.648-72.875-72.906-72.875zm0 5.9688c5.4453 0.012268 10.902 0.69196 16.188 2 25.903 6.0254 46.397 28.998 50.062 55.25 4.1167 25.725-8.7369 52.824-30.812 66.469-23.188 14.994-55.437 12.954-76.906-4.25-20.58-15.851-29.952-44.236-23.375-69.281 6.962-28.849 35.176-50.684 64.844-50.188zm61.594 105.88c-0.36487 0.607-0.72836 1.1946-1.125 1.7812-0.78436 1.1602-1.6238 2.2908-2.4688 3.4062-0.56699 0.74847-1.1219 1.4961-1.7188 2.2188-0.74316 0.89984-1.5248 1.767-2.3125 2.625 1.413-1.5537 2.7608-3.1696 4.0312-4.8438 1.2704-1.6741 2.4636-3.4065 3.5938-5.1875z" fill-rule="evenodd" filter="url(#w)"/>
  <g fill-rule="evenodd">
   <rect transform="rotate(45)" x="195.82" y="-17.782" width="26.098" height="16.163" fill="url(#x)"/>
   <path d="m89.194 7.5246c-29.668-0.49628-57.869 21.347-64.831 50.196-6.5767 25.045 2.769 53.435 23.348 69.286 21.47 17.204 53.745 19.232 76.933 4.2375 22.076-13.645 34.933-40.742 30.816-66.467-3.6651-26.252-24.189-49.238-50.092-55.263-5.286-1.308-10.73-1.977-16.175-1.9894z" fill="url(#ae)" opacity=".404"/>
   <path d="m89.194 1.5562c-40.258 0-72.881 32.624-72.881 72.881 0 40.258 32.624 72.881 72.881 72.881 40.258 0 72.918-32.624 72.918-72.881 0-40.258-32.661-72.881-72.918-72.881zm0 5.9684c2.3093 0 4.6091 0.14227 6.8581 0.37067 2.249 0.22839 4.4581 0.55536 6.6357 1.0009 2.1776 0.44562 4.3184 1.0166 6.4133 1.6682 2.0949 0.65155 4.1528 1.3779 6.1538 2.2242 2.001 0.84638 3.9242 1.7875 5.8201 2.8174s3.744 2.1712 5.5236 3.3735 3.5008 2.4919 5.1528 3.8553c1.6521 1.3634 3.2318 2.7869 4.7451 4.3002 1.5133 1.5134 2.9739 3.093 4.3373 4.7451s2.6531 3.3733 3.8554 5.1529 2.3065 3.6276 3.3364 5.5236c1.0299 1.8959 1.971 3.8562 2.8174 5.8572 0.84634 2.001 1.6097 4.0218 2.2613 6.1167 0.65158 2.0949 1.1855 4.2357 1.6311 6.4133 0.44559 2.1776 0.80957 4.4238 1.038 6.6728 0.22839 2.249 0.33362 4.5117 0.33362 6.821s-0.10522 4.6091-0.33362 6.8581c-0.22842 2.2491-0.59241 4.4581-1.038 6.6357-0.44562 2.1776-0.97955 4.3184-1.6311 6.4133-0.65158 2.0948-1.415 4.1528-2.2613 6.1538-0.84634 2.001-1.7875 3.9243-2.8174 5.8201-1.0299 1.8959-2.1341 3.744-3.3364 5.5236s-2.4919 3.5008-3.8554 5.1528c-1.3634 1.6521-2.8239 3.2318-4.3373 4.7451-1.5133 1.5134-3.093 2.9739-4.7451 4.3373s-3.3733 2.6531-5.1528 3.8554c-1.7796 1.2023-3.6277 2.3064-5.5236 3.3364-1.8959 1.0299-3.8191 1.971-5.8201 2.8174-2.001 0.84638-4.0589 1.6097-6.1538 2.2614-2.0949 0.65155-4.2357 1.1855-6.4133 1.6311-2.1776 0.44556-4.3867 0.80957-6.6357 1.038-2.249 0.22839-4.5488 0.33362-6.8581 0.33362s-4.572-0.10522-6.821-0.33362c-2.249-0.22839-4.4952-0.59241-6.6728-1.038-2.1776-0.44562-4.2813-0.97955-6.3762-1.6311-2.0949-0.65161-4.1528-1.415-6.1538-2.2614-2.001-0.84638-3.9613-1.7875-5.8572-2.8174s-3.744-2.1341-5.5236-3.3364-3.5008-2.492-5.1528-3.8554c-1.6521-1.3634-3.2317-2.8239-4.7451-4.3373s-2.9368-3.093-4.3002-4.7451c-1.3634-1.652-2.6531-3.3732-3.8554-5.1528s-2.3435-3.6276-3.3734-5.5236c-1.0299-1.8959-1.971-3.8192-2.8174-5.8201-0.84636-2.001-1.5727-4.0589-2.2243-6.1538-0.65158-2.0949-1.2226-4.2357-1.6682-6.4133-0.44559-2.1776-0.77252-4.3867-1.0009-6.6357-0.22842-2.249-0.33365-4.5488-0.33365-6.8581s0.10522-4.572 0.33365-6.821c0.22839-2.249 0.55533-4.4952 1.0009-6.6728 0.44559-2.1776 1.0166-4.3184 1.6682-6.4133 0.65158-2.0948 1.3779-4.1157 2.2243-6.1167 0.84636-2.001 1.7875-3.9613 2.8174-5.8572s2.1712-3.744 3.3734-5.5236c1.2023-1.7796 2.492-3.5008 3.8554-5.1529 1.3634-1.652 2.7869-3.2317 4.3002-4.7451s3.093-2.9368 4.7451-4.3002c1.652-1.3634 3.3732-2.6531 5.1528-3.8553 1.7796-1.2023 3.6276-2.3436 5.5236-3.3735 1.8959-1.0299 3.8562-1.971 5.8572-2.8174 2.001-0.84638 4.0589-1.5727 6.1538-2.2242 2.0949-0.65161 4.1986-1.2226 6.3762-1.6682 2.1776-0.44556 4.4237-0.77252 6.6728-1.0009 2.249-0.22839 4.5118-0.37067 6.821-0.37067z" fill="url(#y)"/>
   <path d="m125.6 137.53c3.3084 3.0571 7.7073 4.9675 12.567 4.9675 10.25 0 18.572-8.3227 18.572-18.572 0-4.7828-1.885-9.0911-4.8563-12.382-0.72537 1.2206-1.431 2.4596-2.2242 3.6329-1.3107 1.9387-2.7027 3.8351-4.189 5.6348s-3.0584 3.5043-4.708 5.1528c-1.6497 1.6485-3.3891 3.2228-5.1899 4.708s-3.658 2.8794-5.5977 4.189c-1.406 0.9492-2.901 1.8176-4.3744 2.669z" fill="url(#z)"/>
  </g>
  <g transform="matrix(1.1863 0 0 1.1863 -19.814 -165.12)">
   <g mask="url(#u)">
    <g mask="url(#t)" opacity=".788">
     <path d="m88.579 147.56c-25.153 1.2434-47.92 22.016-50.625 47.25 12.099 10.751 30.812 16.083 45.25 6.8438 8.6561-5.6183 15.868-14.308 26.688-15.719 12.909-2.4273 25.778 3.0258 36.156 10.312-2.2754-26.836-27.239-49.438-54.188-48.719-1.0938 0.011169-2.1883-0.02771-3.2812 0.031189v6.1e-5z" fill="#fff" fill-rule="evenodd" mask="url(#s)"/>
    </g>
   </g>
   <g mask="url(#u)">
    <g mask="url(#t)" opacity=".788">
     <path d="m88.579 147.56c-25.153 1.2434-47.92 22.016-50.625 47.25 12.099 10.751 30.812 16.083 45.25 6.8438 8.6561-5.6183 15.868-14.308 26.688-15.719 12.909-2.4273 25.778 3.0258 36.156 10.312-2.2754-26.836-27.239-49.438-54.188-48.719-1.0938 0.011169-2.1883-0.02771-3.2812 0.031189v6.1e-5z" fill="#fff" fill-rule="evenodd" mask="url(#s)"/>
    </g>
   </g>
  </g>
  <g fill-rule="evenodd">
   <path d="m177.97 152.98a11.161 11.161 0 1 1 -22.322 0 11.161 11.161 0 1 1 22.322 0z" fill="url(#af)"/>
   <path d="m245.28 219.66a11.161 11.161 0 1 1 -22.322 0 11.161 11.161 0 1 1 22.322 0z" fill="url(#aa)"/>
   <rect transform="rotate(45)" x="225.18" y="-24.912" width="95.93" height="29.584" fill="url(#ab)"/>
  </g>
 </g>
</svg>
